<?xml version="1.0" encoding="UTF-8"?>
<svg width="66px" height="27px" viewBox="0 0 66 27" version="1.1" xmlns="http://www.w3.org/2000/svg" xmlns:xlink="http://www.w3.org/1999/xlink">
    <!-- Generator: sketchtool 63.1 (101010) - https://sketch.com -->
    <title>162752E5-9815-4776-88EF-02C6A13D9145</title>
    <desc>Created with sketchtool.</desc>
    <g id="apstiprinats" stroke="none" stroke-width="1" fill="none" fill-rule="evenodd">
        <g id="Eko-nams-Mobile-menu-open" transform="translate(-13.000000, -47.000000)" fill="#FFFFFF">
            <g id="logo">
                <path d="M29.3874384,66.6273564 L25.9148786,70.1380762 L29.4255984,73.686956 L27.9373585,73.686956 L24.4266387,70.1380762 L27.9373585,66.6273564 L29.3874384,66.6273564 Z M23.3963187,66.6273564 L23.3963187,73.686956 L22.2896788,73.686956 L22.2896788,66.6273564 L23.3963187,66.6273564 Z M20.8395989,66.6273564 L20.8395989,67.6958363 L14.8484792,67.6958363 L14.8484792,69.6419962 L17.939439,69.6419962 L17.939439,70.6723162 L14.8484792,70.6723162 L14.8484792,72.6184761 L20.8395989,72.6184761 L20.8395989,73.686956 L13.7799993,73.686956 L13.7799993,66.6273564 L20.8395989,66.6273564 Z M63.1208766,66.6273564 L65.8683964,70.4051962 L68.6159163,66.6273564 L70.0654662,66.6273564 L70.0654662,73.686956 L68.9593563,73.686956 L68.9593563,67.9247963 L65.8683964,72.2750361 L62.7011166,67.8866363 L62.7011166,73.686956 L61.5944767,73.686956 L61.5944767,66.6273564 L63.1208766,66.6273564 Z M44.0027176,66.6273564 L49.7267173,72.3513561 L49.7267173,66.6273564 L50.7951973,66.6273564 L50.7951973,73.686956 L49.5359173,73.686956 L43.8119176,67.9247963 L43.8119176,73.686956 L42.7052777,73.686956 L42.7052777,66.6273564 L44.0027176,66.6273564 Z M57.0534369,66.6273564 L60.3351967,73.686956 L59.0759168,73.686956 L58.4271968,72.2750361 L55.298077,72.2750361 L55.755467,71.2447162 L58.0074369,71.2447162 L56.213917,67.5050364 L53.3137571,73.686956 L52.0926372,73.686956 L55.374397,66.6273564 L57.0534369,66.6273564 Z M36.599678,66.6273564 C37.1448209,66.6273564 37.586127,67.0427033 37.62692,67.5437567 L37.629998,67.6195163 L37.629998,72.6566361 C37.629998,73.2017789 37.2146511,73.6084728 36.6806336,73.6459694 L36.599678,73.648796 L31.5625583,73.648796 C31.0537583,73.648796 30.6141828,73.2680614 30.5734722,72.7373403 L30.5703983,72.6566361 L30.5703983,67.6195163 C30.5703983,67.1107164 30.9857453,66.6711409 31.4867987,66.6304303 L31.5625583,66.6273564 L36.599678,66.6273564 Z M78.4991438,66.6273034 L78.4991438,67.6957833 L72.5080241,67.6957833 L72.5080241,69.6419432 L77.4693538,69.6419432 C78.0144966,69.6419432 78.455322,70.0572902 78.4960692,70.5913076 L78.4991438,70.6722632 L78.4991438,72.6565831 C78.4991438,73.1653831 78.0842776,73.6049585 77.5503059,73.6456691 L77.4693538,73.648743 L71.4400741,73.648743 L71.4400741,72.6184231 L77.4306638,72.6184231 L77.4306638,70.7104232 L72.4698641,70.7104232 C71.9247213,70.7104232 71.4838959,70.2950763 71.4431487,69.7940228 L71.4400741,69.7182632 L71.4400741,67.6576233 C71.4400741,67.1124805 71.8549403,66.6711744 72.388912,66.6303814 L72.4698641,66.6273034 L78.4991438,66.6273034 Z M36.561518,67.6576763 L31.6007183,67.6576763 L31.6007183,72.6184761 L36.561518,72.6184761 L36.561518,67.6576763 Z M49.9938373,47.6999974 L49.9938373,50.5238373 L74.683356,63.5363966 L73.958316,63.5363966 L49.0016774,51.0580772 L49.0016774,48.6921574 L44.4987976,48.6921574 L44.4987976,51.0580772 L18.664479,63.5363966 L17.901279,63.5363966 L43.5066377,50.4856773 L43.5066377,47.6999974 L49.9938373,47.6999974 Z M57.7403169,59.6439708 L65.6775965,63.5362906 L64.3419965,63.5362906 L57.7021569,60.2926907 L57.1679169,60.5598107 L50.9096773,63.5362906 L49.5359173,63.5362906 L56.9007969,59.9874108 L57.7403169,59.6439708 Z M35.7601051,59.6439708 L36.561465,59.9874108 L43.9263446,63.5362906 L42.5525847,63.5362906 L36.332505,60.5216507 L35.7601051,60.2926907 L29.1584254,63.5362906 L27.8228255,63.5362906 L35.7601051,59.6439708 Z M49.0016774,55.141144 L55.527037,58.2321039 L54.801997,58.5755438 L49.6503973,56.171464 L49.6503973,61.0941037 L49.0016774,61.4375437 L49.0016774,55.141144 Z M44.4989036,55.141144 L44.4989036,61.4375437 L43.8501836,61.0941037 L43.8501836,56.171464 L38.7367439,58.5755438 L37.973544,58.2321039 L44.4989036,55.141144 Z" id="ekonams-logo"></path>
            </g>
        </g>
    </g>
</svg>